#!OML:ASF H:\Dans Jumps\Project 1\Capture day 1\Session 1\subject.ASF
:FULLY-SPECIFIED
:DEGREES
111
root 0.780159 17.5577 -13.8887 7.66806 -0.403285 -1.52652
lowerback -2.64021 -0.772807 0.617213
upperback 3.3359 -1.14703 1.86619
thorax 4.95394 -0.584659 1.50542
lowerneck -13.7145 0.621143 -2.03095
upperneck 29.585 1.52521 -0.305286
head 11.9636 0.411439 0.451373
rclavicle 9.34288e-015 -1.66979e-014
rhumerus -23.0426 -19.2047 -78.6389
rradius 25.8932
rwrist 32.7417
rhand -18.139 -26.2472
rfingers 7.12502
rthumb 8.13618 -56.0706
lclavicle 9.34288e-015 -1.66979e-014
lhumerus -19.7093 4.62924 85.823
lradius 17.9856
lwrist -1.20231
lhand -24.2501 -3.62703
lfingers 7.12502
lthumb 2.23581 26.341
rfemur -13.6333 -2.39854 19.2672
rtibia 20.0256
rfoot -13.4043 -4.28246
rtoes 11.0511
lfemur -13.608 8.85059 -18.3092
ltibia 19.0314
lfoot -10.1863 5.60285
ltoes -10.6144
112
root 0.780811 17.558 -13.8926 7.67079 -0.370298 -1.52805
lowerback -2.62782 -0.781497 0.61305
upperback 3.33079 -1.15829 1.87071
thorax 4.94198 -0.590478 1.51182
lowerneck -13.6976 0.604696 -2.06289
upperneck 29.5206 1.506 -0.296463
head 11.9345 0.401344 0.457096
rclavicle 2.08724e-015 -7.95139e-016
rhumerus -23.024 -19.1556 -78.652
rradius 25.9253
rwrist 32.6533
rhand -18.1003 -26.2153
rfingers 7.12502
rthumb 8.1735 -56.0372
lclavicle 2.08724e-015 -7.95139e-016
lhumerus -19.7018 4.57431 85.8353
lradius 18.0019
lwrist -1.16401
lhand -24.2419 -3.62346
lfingers 7.12502
lthumb 2.24372 26.3445
rfemur -13.6455 -2.42358 19.2688
rtibia 20.0229
rfoot -13.3903 -4.28878
rtoes 11.0552
lfemur -13.5883 8.79804 -18.3011
ltibia 18.9647
lfoot -10.1879 5.58288
ltoes -10.5288
113
root 0.781342 17.5581 -13.8965 7.66906 -0.338473 -1.53097
lowerback -2.61264 -0.790519 0.608337
upperback 3.32687 -1.16996 1.87566
thorax 4.92972 -0.596533 1.51898
lowerneck -13.6832 0.588033 -2.08462
upperneck 29.4616 1.48538 -0.292655
head 11.9082 0.391027 0.45902
rclavicle 5.06901e-015 1.11319e-014
rhumerus -23.0068 -19.1013 -78.6674
rradius 25.959
rwrist 32.5605
rhand -18.0588 -26.1844
rfingers 7.12502
rthumb 8.21357 -56.0048
lclavicle 5.06901e-015 1.11319e-014
lhumerus -19.6949 4.53512 85.8432
lradius 18.0189
lwrist -1.14277
lhand -24.2367 -3.62989
lfingers 7.12502
lthumb 2.2488 26.338
rfemur -13.6524 -2.44435 19.2719
rtibia 20.0199
rfoot -13.3761 -4.29795
rtoes 11.06
lfemur -13.5647 8.74471 -18.2897
ltibia 18.9004
lfoot -10.1924 5.56233
ltoes -10.439
114
root 0.78172 17.5583 -13.9003 7.66303 -0.305704 -1.53418
lowerback -2.59758 -0.799982 0.601846
upperback 3.32547 -1.18219 1.88062
thorax 4.92019 -0.602939 1.52711
lowerneck -13.6768 0.569613 -2.1056
upperneck 29.407 1.46265 -0.289891
head 11.8854 0.37963 0.460206
rclavicle 1.6201e-014 4.77083e-015
rhumerus -22.9887 -19.0481 -78.6844
rradius 25.9896
rwrist 32.4803
rhand -18.024 -26.1589
rfingers 7.12502
rthumb 8.24719 -55.9779
lclavicle 1.6201e-014 4.77083e-015
lhumerus -19.682 4.49919 85.8485
lradius 18.0259
lwrist -1.12732
lhand -24.2321 -3.66342
lfingers 7.12502
lthumb 2.25324 26.3044
rfemur -13.6537 -2.46185 19.2755
rtibia 20.017
rfoot -13.3631 -4.31047
rtoes 11.0617
lfemur -13.5372 8.69247 -18.2763
ltibia 18.8377
lfoot -10.1991 5.53851
ltoes -10.3436
115
root 0.78197 17.5584 -13.904 7.65521 -0.273067 -1.53784
lowerback -2.5844 -0.808586 0.594612
upperback 3.32611 -1.19328 1.8848
thorax 4.91387 -0.608796 1.53489
lowerneck -13.6727 0.548776 -2.12554
upperneck 29.353 1.43592 -0.286022
head 11.8634 0.36668 0.461087
rclavicle 6.95746e-016 -5.56597e-015
rhumerus -22.9696 -19.0002 -78.7032
rradius 26.0147
rwrist 32.4211
rhand -18.005 -26.1383
rfingers 7.12502
rthumb 8.26552 -55.9566
lclavicle 6.95746e-016 -5.56597e-015
lhumerus -19.6672 4.46978 85.8514
lradius 18.0351
lwrist -1.11899
lhand -24.2284 -3.69039
lfingers 7.12502
lthumb 2.25676 26.2774
rfemur -13.6534 -2.47852 19.2799
rtibia 20.0148
rfoot -13.3513 -4.32258
rtoes 11.0623
lfemur -13.5096 8.64534 -18.2624
ltibia 18.7763
lfoot -10.205 5.51223
ltoes -10.2677
116
root 0.782076 17.5585 -13.9078 7.64764 -0.238925 -1.54183
lowerback -2.5735 -0.816706 0.586583
upperback 3.32659 -1.20369 1.88809
thorax 4.90865 -0.614322 1.54224
lowerneck -13.6714 0.525128 -2.14184
upperneck 29.3012 1.40433 -0.28227
head 11.8429 0.351903 0.460649
rclavicle 2.18663e-015 4.77083e-015
rhumerus -22.952 -18.9547 -78.7245
rradius 26.0297
rwrist 32.3995
rhand -18.022 -26.124
rfingers 7.12502
rthumb 8.24911 -55.943
lclavicle 2.18663e-015 4.77083e-015
lhumerus -19.6534 4.44816 85.8507
lradius 18.047
lwrist -1.11874
lhand -24.2164 -3.70654
lfingers 7.12502
lthumb 2.26835 26.2611
rfemur -13.6533 -2.49473 19.2852
rtibia 20.0128
rfoot -13.3398 -4.33569
rtoes 11.0679
lfemur -13.4845 8.6023 -18.2482
ltibia 18.717
lfoot -10.2093 5.48337
ltoes -10.1956
117
root 0.782023 17.5587 -13.9115 7.64113 -0.205368 -1.54625
lowerback -2.56578 -0.824284 0.576698
upperback 3.32682 -1.21335 1.89176
thorax 4.90502 -0.619555 1.55103
lowerneck -13.6703 0.499073 -2.15552
upperneck 29.2498 1.36891 -0.279572
head 11.8227 0.335556 0.458841
rclavicle 9.44227e-015 -1.98785e-015
rhumerus -22.9357 -18.9015 -78.749
rradius 26.0424
rwrist 32.3919
rhand -18.0517 -26.1347
rfingers 7.12502
rthumb 8.22039 -55.9548
lclavicle 9.44227e-015 -1.98785e-015
lhumerus -19.6377 4.42442 85.8518
lradius 18.0605
lwrist -1.11237
lhand -24.2054 -3.68671
lfingers 7.12502
lthumb 2.27898 26.2809
rfemur -13.6547 -2.50936 19.2916
rtibia 20.0107
rfoot -13.3278 -4.34908
rtoes 11.0753
lfemur -13.463 8.56596 -18.2342
ltibia 18.6607
lfoot -10.2125 5.45286
ltoes -10.1304
118
root 0.781832 17.559 -13.9151 7.63426 -0.172955 -1.55099
lowerback -2.56323 -0.831415 0.565484
upperback 3.32825 -1.22245 1.89502
thorax 4.9056 -0.624552 1.56009
lowerneck -13.6658 0.470979 -2.16809
upperneck 29.1951 1.33007 -0.276735
head 11.8006 0.317861 0.456394
rclavicle 5.46658e-015 8.34896e-015
rhumerus -22.9178 -18.8547 -78.7745
rradius 26.0467
rwrist 32.4086
rhand -18.0965 -26.1494
rfingers 7.12502
rthumb 8.1772 -55.9712
lclavicle 5.46658e-015 8.34896e-015
lhumerus -19.62 4.41005 85.85
lradius 18.0714
lwrist -1.11024
lhand -24.1965 -3.67649
lfingers 7.12502
lthumb 2.28754 26.291
rfemur -13.6551 -2.52384 19.299
rtibia 20.0078
rfoot -13.3151 -4.3616
rtoes 11.0805
lfemur -13.4426 8.53643 -18.2203
ltibia 18.6077
lfoot -10.2147 5.4204
ltoes -10.08
119
root 0.781531 17.5592 -13.9186 7.62871 -0.142872 -1.55529
lowerback -2.56659 -0.839101 0.550901
upperback 3.32927 -1.23226 1.89904
thorax 4.90923 -0.630042 1.57172
lowerneck -13.6563 0.442021 -2.17826
upperneck 29.1368 1.29049 -0.278382
head 11.7761 0.299575 0.451734
rclavicle 8.74653e-015 -3.06128e-014
rhumerus -22.8989 -18.8088 -78.7997
rradius 26.0468
rwrist 32.4309
rhand -18.1404 -26.165
rfingers 7.12502
rthumb 8.13482 -55.9884
lclavicle 8.74653e-015 -3.06128e-014
lhumerus -19.6028 4.40754 85.8475
lradius 18.0836
lwrist -1.11389
lhand -24.1942 -3.64211
lfingers 7.12502
lthumb 2.28984 26.3253
rfemur -13.6564 -2.53742 19.3062
rtibia 20.0033
rfoot -13.3015 -4.37296
rtoes 11.0916
lfemur -13.4256 8.51283 -18.2078
ltibia 18.5583
lfoot -10.2156 5.38804
ltoes -10.0438
120
root 0.78115 17.5596 -13.9217 7.62172 -0.118105 -1.55785
lowerback -2.57552 -0.846748 0.531947
upperback 3.33069 -1.24192 1.90308
thorax 4.91657 -0.635621 1.58576
lowerneck -13.638 0.412155 -2.19181
upperneck 29.0739 1.25037 -0.280731
head 11.7481 0.280657 0.447275
rclavicle 1.14301e-014 4.77083e-015
rhumerus -22.8802 -18.7681 -78.8225
rradius 26.0409
rwrist 32.4618
rhand -18.1791 -26.1756
rfingers 7.12502
rthumb 8.09744 -56.0004
lclavicle 1.14301e-014 4.77083e-015
lhumerus -19.5854 4.40575 85.8448
lradius 18.0892
lwrist -1.11129
lhand -24.1854 -3.60109
lfingers 7.12502
lthumb 2.29834 26.3663
rfemur -13.6551 -2.55084 19.3117
rtibia 19.997
rfoot -13.2868 -4.38003
rtoes 11.1035
lfemur -13.407 8.49739 -18.1977
ltibia 18.5118
lfoot -10.217 5.35439
ltoes -10.0105
121
root 0.780747 17.56 -13.9246 7.61367 -0.100303 -1.55952
lowerback -2.58947 -0.853301 0.510644
upperback 3.33193 -1.25006 1.90645
thorax 4.92659 -0.640517 1.60045
lowerneck -13.6081 0.381549 -2.2068
upperneck 29.0039 1.20896 -0.28263
head 11.715 0.261167 0.442992
rclavicle -1.66979e-014 -1.19271e-015
rhumerus -22.8623 -18.7343 -78.8435
rradius 26.0327
rwrist 32.4855
rhand -18.1991 -26.1931
rfingers 7.12502
rthumb 8.07817 -56.0187
lclavicle -1.66979e-014 -1.19271e-015
lhumerus -19.5708 4.40771 85.8409
lradius 18.0947
lwrist -1.1113
lhand -24.1762 -3.55111
lfingers 7.12502
lthumb 2.30719 26.4162
rfemur -13.6518 -2.56254 19.3158
rtibia 19.9888
rfoot -13.2717 -4.3817
rtoes 11.1212
lfemur -13.3862 8.48535 -18.1889
ltibia 18.4673
lfoot -10.2181 5.32423
ltoes -9.97445
122
root 0.780359 17.5604 -13.9272 7.60256 -0.0884606 -1.5587
lowerback -2.60542 -0.858552 0.486392
upperback 3.33299 -1.25626 1.90831
thorax 4.93753 -0.644537 1.61534
lowerneck -13.5719 0.34941 -2.2268
upperneck 28.9307 1.16504 -0.279914
head 11.6793 0.240632 0.440926
rclavicle -1.14301e-014 1.82882e-014
rhumerus -22.8442 -18.7184 -78.8594
rradius 26.0132
rwrist 32.5156
rhand -18.2084 -26.2039
rfingers 7.12502
rthumb 8.06916 -56.0299
lclavicle -1.14301e-014 1.82882e-014
lhumerus -19.5589 4.39971 85.8374
lradius 18.0954
lwrist -1.10576
lhand -24.1654 -3.50824
lfingers 7.12502
lthumb 2.31761 26.4589
rfemur -13.6444 -2.57602 19.3168
rtibia 19.9797
rfoot -13.2569 -4.37616
rtoes 11.1428
lfemur -13.3598 8.47619 -18.1829
ltibia 18.4233
lfoot -10.2193 5.29681
ltoes -9.9235
123
root 0.780016 17.5609 -13.9295 7.58811 -0.0831245 -1.55626
lowerback -2.62084 -0.861841 0.461324
upperback 3.33351 -1.25969 1.90817
thorax 4.94751 -0.647168 1.62882
lowerneck -13.5319 0.314011 -2.25046
upperneck 28.8548 1.11592 -0.272732
head 11.6419 0.217948 0.440432
rclavicle 4.07509e-015 5.96354e-015
rhumerus -22.8272 -18.7179 -78.8722
rradius 25.9896
rwrist 32.535
rhand -18.1944 -26.2242
rfingers 7.12502
rthumb 8.08268 -56.0496
lclavicle 4.07509e-015 5.96354e-015
lhumerus -19.5523 4.38509 85.8331
lradius 18.097
lwrist -1.10127
lhand -24.1499 -3.46264
lfingers 7.12502
lthumb 2.33256 26.5044
rfemur -13.6333 -2.58908 19.3152
rtibia 19.9705
rfoot -13.2429 -4.36403
rtoes 11.1704
lfemur -13.3275 8.46731 -18.1787
ltibia 18.3793
lfoot -10.2192 5.27632
ltoes -9.8724
